<svg xmlns="http://www.w3.org/2000/svg" xmlns:xlink="http://www.w3.org/1999/xlink" viewBox="0 0 1000 461">
  <defs>
    <style>
      .cls-1 {
        isolation: isolate;
      }
    </style>
  </defs>
  <g id="rubber-detail" class="cls-1">
    <path d="M435,98c2.08.37,1.92.24,3,1h-1a58.31,58.31,0,0,0-8.05.89A43.26,43.26,0,0,0,421,102c-5.63,2.35-8.67,6-12,9-3.95,3.62-10.36,6.35-17,10-3.93,2.16-9.29,5.25-14,8-4.9,2.86-10,5.9-15,9-13.87,8.52-36.49,22-55,33l-1-3a39.65,39.65,0,0,1,1-13,85.75,85.75,0,0,1,7-12c2.57-3.68,5.14-6.54,8-10,2.47-3,6.25-8.35,9-12,3.71-4.91,7.89-10.35,11-14,3.24-3.81,6.53-7.43,10-11,3-3.06,5.94-6,9-9,4.94-4.81,9.86-9.4,15-14a13.22,13.22,0,0,1,8-3,10.55,10.55,0,0,1,7,2,9.7,9.7,0,0,1,3,4,54.05,54.05,0,0,1-7,5c-2.54,1.54-4.57,2.51-6,5s-1.17,6.35-.53,12c.35,3,1.25,5,1.53,8,.11,1.18.26,3.53,2,5a4.9,4.9,0,0,0,2,1c6.4-1.66,10.58-6.55,16-9,3.94-1.78,6.75-.89,10-3,6.66-4.33,9.09-10.43,20-11l1,3C435,93.42,435,95.27,435,98Z" transform="translate(-1 -5)"/>
  </g>
  <g id="main-color" class="cls-1">
    <path d="M606,230a254.25,254.25,0,0,1,25,20c6.69,6.13,12.63,12.61,11,18-1.26,4.18-6.47,5.69-12,8-.85.36-13.14,7.37-16,9a193.85,193.85,0,0,0-24,17,231.53,231.53,0,0,0-34,34c-12.36-2.06-24.62-4.05-37-6-8.68-1.37-17.31-2.69-26-4l-32-5c-8.7-1.85-17.22-3.49-26-5-12.94-2.23-25.08-3.65-38-6-10.91-2-26.29-4.78-30-6-5.88-1.93-13.32-4.69-23-4-12.2.87-20.59,6.37-29,12-7.82,5.23-16,10.64-24,16-1.65-2-3.29-4-5-6-2.45-2.86-5.24-6-8-9-3.17-3.46-6.66-7.31-10-11a18.3,18.3,0,0,0,12-22,13.22,13.22,0,0,0-3-5,15.18,15.18,0,0,0-8-4c-6.64-1.31-15.27-4.44-24-6-4.67-.84-9.28-1.82-14-3-4.31-4.68-8.62-9.33-13-14-5.1-5.44-10.09-10.57-15-15a203.09,203.09,0,0,0-16-13l-4-4c10.23-2.78,20.15-5.72,30.25-9,7-2.25,13.82-4.56,20.75-7l18-7c3.38-.94,6.66-1.92,10-3,5.77-1.86,20.61-7.77,21-7s-6.14,4.69-10,7a13.51,13.51,0,0,0,0,11c1.21,2.61,3.56,5.19,8,7a21.5,21.5,0,0,0,11,1c5.48-.81,9.53-.17,15-1,5.73-.87,15.26-2.06,20-3q24.66-4.87,50-9c9.35-1.53,18.53-2.84,28-4l25-2a370.06,370.06,0,0,1,59,3,349.88,349.88,0,0,1,66,15A334.53,334.53,0,0,1,606,230Z" transform="translate(-1 -5)"/>
    <path d="M718,222l7,3a58.3,58.3,0,0,0,8,3c5.81,1.47,10.1.66,16,1,6.25.36,9.92,2,16,4,4.77,1.54,17.34,4,27,6,8.53,1.76,17.17,3.42,26,5,8,1.44,15.93,2.75,24,4l15,2,18,2c5.69.73,11.29,1.39,17,2,7,.76,13.94,1.42,21,2a19.21,19.21,0,0,1,4,1,24.73,24.73,0,0,1,4,2,34.74,34.74,0,0,1,3,2,4.16,4.16,0,0,1,2,4,4.07,4.07,0,0,1-2,3,87.72,87.72,0,0,1-25,11,108.44,108.44,0,0,1-23,3c-4.74.18-10.49.07-16,0-5.09-.06-10.38-.08-15,0-9.38.16-17.62,1.08-27,1-4.75,0-9.84-.09-14,0-7.4.15-14.81.74-18,2-4.25,1.68-12.3,9.22-20,9a17.45,17.45,0,0,1-9-3l-12-6a64.78,64.78,0,0,1-14-9c-8.28-7-12.49-14-17-22-3.79-6.72-7.55-13.53-11-20a9.68,9.68,0,0,1,4-4c2.78-1.39,5.56-.29,8-2C716.69,226.82,717.64,224.73,718,222Z" transform="translate(-1 -5)"/>
    <path d="M391,227a10.92,10.92,0,0,1-2,3c.11.31.19.53.24.71l.22.61c.18.54.37,1.1.54,1.68a6.59,6.59,0,0,0,1,2,7.16,7.16,0,0,0,3.35,2.42A76.73,76.73,0,0,0,402,240c1.38.34,3.88,1.21,6,2,2.33.87,4.61,1.86,7,3a285.94,285.94,0,0,1,29,16c4.62,2.92,7.43,6,12,9,1.67,1.09,5.48,3.56,5,5-.18.55-1,.85-2,1-8.68,3.19-17.16,6.28-26,9-5.4,1.66-13.35.66-16,5,.8,1,.35.27,1,2,6.8.87,33.92,7.52,39,6,6.23-1.86,9.82-7.2,18-8a53,53,0,0,1,4.22,7.26c1,2.2,1.76,4.05,3.78,5.74,3,2.53,6.41,2.54,11,3,2.32.23,4.64.56,7,1l9,1a70.44,70.44,0,0,1,7-6,58.16,58.16,0,0,1,8-5,26.51,26.51,0,0,1,3,2,30.61,30.61,0,0,1,10,14h22c1.4.43,2.55.55,3,0,.93-1.13-1.39-4.65-4-8-1.24-2.08-2.58-4.08-4-6a57.07,57.07,0,0,0-7-8,32.11,32.11,0,0,0-5-4c-1.37-.65-2.93-1.11-3-2,0-.69.82-1.39,2-2,3.61-2.47,7.23-4.78,11-7s7.24-4.11,11-6a25.83,25.83,0,0,1,7-4c1.06-.39,2.94-1,3-2,0-.72-.85-1.42-2-2l-2-1a16.41,16.41,0,0,0-5-1c-5.07-.19-8.59,2.1-12,4-3.81,2.12-7.12,3-11,5a128.51,128.51,0,0,0-12,7l-3-2a15.83,15.83,0,0,0-3-2c-1.56-.79-2.93-1.18-3-2s.8-1.37,2-2c3.67-1.4,7.29-2.71,11-4,3-1,6-2,9-3l4-2a1.65,1.65,0,0,0,1-1,1.56,1.56,0,0,0,0-1,25.22,25.22,0,0,0-5-2,29.15,29.15,0,0,0-4.27-.83c-.56-.07-1.13-.12-1.73-.17a40.06,40.06,0,0,0-6,0,60.6,60.6,0,0,0-10,2,48.6,48.6,0,0,0-9,3,34.66,34.66,0,0,0-5,3l-3-1q-8.4-2.82-17-6c-7.85-2.88-19.79-6.54-30-10-7.07-2.4-15.43-5.23-21-7-4.38-1.39-8.88-2.79-13-4-4.84-1.43-11.45-3.42-14-4-2.75-.62-4.81-.87-7-2a25.88,25.88,0,0,0-5-2,7.23,7.23,0,0,0-4,0A6.82,6.82,0,0,0,391,227Z" transform="translate(-1 -5)"/>
    <path d="M471,264a5.7,5.7,0,0,1,5,1,5.7,5.7,0,0,1,2,1,5.91,5.91,0,0,1,1,1l2,1v1l-1,1a3.35,3.35,0,0,1-1,0,5.45,5.45,0,0,1-2-1,12.42,12.42,0,0,1-2-1,6.54,6.54,0,0,1-1-1A28.25,28.25,0,0,0,471,264Z" transform="translate(-1 -5)"/>
    <path d="M497,279h1a5.7,5.7,0,0,1,5,1,14.19,14.19,0,0,0,2.79,1.38c1.4.5,3.16.89,3.21,1.62,0,.24-.24.46-.15.64.18.36,1.39-.09,2.15.36a2.57,2.57,0,0,1,1,2l-2,1-6,3c-.71.36-1.63.86-2,1a5,5,0,0,0-2,1c-.2.19-.62.93-1,1-.89.16-2-1.84-3-4-1.05-1.31-2-2.63-3-4-.7-1-1.35-2-2-3a4.9,4.9,0,0,1,2-1,4.17,4.17,0,0,0,1.32-.46A3.94,3.94,0,0,0,495,280,4.77,4.77,0,0,1,497,279Z" transform="translate(-1 -5)"/>
    <path d="M343,106a75.17,75.17,0,0,0-16,14c-2.24,2.43-4.55,4.75-7,7-3,2.8-7,6-11,9-2.3,1.73-4.6,3.37-7,5a22.9,22.9,0,0,1-10,8c-3.37,2-6.67,3.95-10,6-2.69,1.65-5.33,3.3-8,5l-11,5a381.08,381.08,0,0,1-36,14,161.74,161.74,0,0,1-19,5c-4.24.81-9.06,1.49-14,2-5.6.58-12.3.9-19,1-2,0-5.3,0-8,0-4.63,0-9.31,0-14,0l-13-2a146,146,0,0,1-22-6,54.94,54.94,0,0,1-14-7c-4.49-3.22-10-8.94-15-17-6.75-11-11.34-24-14-37q-1-10-2-20c-1.64-5.47-6.2-7-7-14,2.73-1.71,2.5-2.54,7-3,11.36-7,32.82,7.44,37,12,9,9.76,16.41,26.58,22,39,1.57,3.49,1.61,7,4,11,5.62,9.36,16.94,15.84,39,20,6.8,1.28,16.91,2,26,3a141.09,141.09,0,0,0,16,1,105,105,0,0,0,22-2c7.28-1.57,13.92-4.23,22-8,9-4.19,17.88-8.73,25-12.87A207.8,207.8,0,0,0,306,131a132.73,132.73,0,0,0,12-10c3.52-3.53,6.17-6.81,10-10a102.33,102.33,0,0,1,10-7c3.74-2.47,7.38-5.12,11-8,4.24-3.33,11.3-8.76,12-8,.52.57-2.69,4.37-5,7-2.33,2-4.64,4-7,6C347,102.69,345,104.34,343,106Z" transform="translate(-1 -5)"/>
  </g>
  <g id="second-color" class="cls-1">
    <path d="M309,350c-15.34-.56-30.54-1.22-46-2-12-.61-35.25-2-53-3l-35-2-31-2c-8.39-.72-16.7-1.39-25.09-2-9.33-.71-18.57-1.36-27.91-2l-26-2c-9.38-.94-18.64-1.93-28-3-8.37-.95-16.64-1.95-25-3q-1-13-2-26,1-14.5,2-29c8.94-7,17.67-14.25,25-21a182.37,182.37,0,0,1,17-14,162.38,162.38,0,0,1,14-9l14-8,11-6c8-2.37,17.41-7.82,26-10,14.55-3.7,29.05-2.62,42,1a84.8,84.8,0,0,1,24,11c4.73,4.09,9.27,8.16,13.86,12.41C203,234.24,207,238,211,242l10,11c3.76,3.62,7.36,7.23,11,11,3.95,4.1,8,8.5,12,13,5.47,6.13,11.95,13.32,18,20l13,14,7,8,7,8Q299,338.49,309,350Z" transform="translate(-1 -5)"/>
    <path d="M920,256a14.21,14.21,0,0,1,8,1,15.87,15.87,0,0,1,5,4c2.86,3,5.52,3.75,9,6,3.83,2.48,12.11,12.38,18,25a113.62,113.62,0,0,1,5,13c1.17,3.64,2.17,7.29,3,11a43.51,43.51,0,0,1-6,7,45.18,45.18,0,0,1-8,6,105.4,105.4,0,0,1-17,8c-9.4,3.14-21.93,8.48-34,12-24.26,7.08-60.19,14.56-92,20l-21,3c-13.1,1.88-25.9,3.52-39,5-14.32,1.61-29.08,3.07-42,4-14.08,1-28,1.73-41,2-10.43.22-20.6.22-31,0-13.86.19-27.33.2-41,0-10.63-.15-21.72-.46-31-1-11.47-.67-22.64-1.66-34-3l-9-1,6-9c2.61-3.75,5.23-7.36,8-11,4.19-5.51,8.46-10.77,13-16l10-11a228.14,228.14,0,0,1,18-18c3.94-3.52,7.89-6.81,12-10,3.61-2.8,7.23-5.43,11-8l12-8a93.17,93.17,0,0,1,38-18,25.47,25.47,0,0,1,7-1c6.46,0,12.32,3,14,4,6.37,3.64,12.51,6,19,10s18.88,10.06,30,15a78.36,78.36,0,0,0,18,5c8.06,1.08,14.9.31,19-1,5.43-1.74,8.72-4.65,14-8,6-3.81,12.78-7.12,16-8,7.83-2.14,13.12-1.2,21-1,4.87.12,11-.69,17-1,10.94-.56,22.15-.94,32-1,8.47-.05,17.1-.74,26-1,4-.11,12.64-1.42,20-3,2.69-.58,9.43-3.48,15-6,3.6-1.63,7.89-3.81,8-7a5.5,5.5,0,0,0-2-4,9.82,9.82,0,0,0-2.65-2.33c-1.85-1.08-4.34-1.24-4.35-1.67S918.6,256.26,920,256Z" transform="translate(-1 -5)"/>
    <path d="M564,314c-5.68-.55-11.29-.88-17-1-3-.06-6-.06-9,0-1-1.65-2-3.33-3-5-1.57-2.59-3.77-5.21-5-7a11.67,11.67,0,0,0-3.23-3.16A9.56,9.56,0,0,0,525,297h-2a94.71,94.71,0,0,1-10,8c-1,.69-2,1.35-3,2l-2,1-2,1-20-5-2-1-1-1c4.94-2.85,9.86-5.68,14.81-8.49L511,286q-4-3-8-6c-5-3.73-9.29-6.78-14-9-3.46-1.63-6.51-2.43-10-4s-6.47-3.37-10-5c-1.62-.75-4.62-2-7-3-1.73-.74-6-2.63-9-4l-11-5a124.67,124.67,0,0,0-15-7c-8.32-3.23-15.37-4.72-24-7-4.7-1.24-9.29-2.55-14-4a4,4,0,0,1,0-3,5.41,5.41,0,0,1,2-2,7.45,7.45,0,0,1,3-1,8.5,8.5,0,0,1,5,1l7,2c4.7,1.34,11.42,3.23,14,4,7.91,2.35,16.37,5.53,24,8,8.91,2.89,17.15,4.91,26,8,7.28,2.54,13.75,5.38,21,8,4.49,1.62,8.76,3.24,13,5,3.11,1.29,8.56,3.9,13,6a65.11,65.11,0,0,1,9.61,5.46c1.17.81,2.28,1.65,3.39,2.54,1.67-1,3.31-2,5-3,3.26-1.9,8.52-4.65,13-7a57.79,57.79,0,0,1,9-4,52.29,52.29,0,0,1,8-2,11.78,11.78,0,0,1,7,2,11.41,11.41,0,0,1,3,3c-1.44.44-2.84.93-4.24,1.49A58.22,58.22,0,0,0,562,271c-2.69,1.71-5.32,3.27-8,5s-5.27,3.34-8,5l-4,3c2,2.37,4,4.69,6,7a138.24,138.24,0,0,1,9,11A84.62,84.62,0,0,1,564,314Z" transform="translate(-1 -5)"/>
  </g>
  <g id="third-color" class="cls-1">
    <path d="M423,48c1,.8.27.35,2,1C424,48.2,424.73,48.65,423,48Z" transform="translate(-1 -5)"/>
    <path d="M547,256l1,2a25.23,25.23,0,0,1-3,2,29.51,29.51,0,0,1-8,3c-2.47.64-5.13,1.35-7,2-1.5.52-3.28,1.29-5,2s-3.3,1.34-5,2l-15-7c2.31-1.11,4.63-2.1,7-3a83.51,83.51,0,0,1,14-4,50.64,50.64,0,0,1,9-1A38.86,38.86,0,0,1,547,256Z" transform="translate(-1 -5)"/>
    <path d="M417,292a2.5,2.5,0,0,1,0-4c2.69-.66,5.34-1.32,8-2,5.2-1.33,11.94-3,15-4,3.43-1.09,6.64-2.13,10-3,1.35-.35,3-.77,4-1,1.43-.33,3.07-.85,4-1,1.54-.25,2.72-.3,3-1,.42-1-1.38-2.74-3-4a88.4,88.4,0,0,0-12-10,124.57,124.57,0,0,0-12-7c-5-2.74-11.26-7.1-18-10-3.66-1.57-10.52-4.09-16-6-1.92-.67-3.41-1.64-5-2a6.65,6.65,0,0,1-4-2,5.1,5.1,0,0,1-1-2c2.7.73,5.32,1.39,8,2,4.51,1,8.57,1.69,13,3,3.92,1.16,7.14,2.65,11,4,4.14,1.45,7.91,2.42,12,4a104,104,0,0,1,11,5q3.51,1.53,7,3c1.72.72,6,2.65,9,4,4.65,2.06,8.08,3.57,10,6a23.91,23.91,0,0,0,5,5,4.78,4.78,0,0,0,3,1c1.19-.09,1.81-.77,3-1a7.74,7.74,0,0,1,2,0,29.33,29.33,0,0,1,11,5c2.2,1.64,4.59,3.34,7,5h-4l-3,1c-2.15.73-3.68,1.28-4,2-1.1,2.48,4.27,7.18,8,10a3.77,3.77,0,0,1-1,2,4.09,4.09,0,0,1-2,1c-2.19.46-6.48,2.88-10,5-.65.71-1.31,1.37-2,2s-1.4,1.2-2,1-.89-1.43-1-2c-.44-2.35-2-4.19-3-7-.36-1-.69-2-1-3l-2-1h-2a37.5,37.5,0,0,0-5,2,42.47,42.47,0,0,0-7,4,9.72,9.72,0,0,1-4,2,9.94,9.94,0,0,1-3,0c-2.87-.5-6.4-.4-10-1C436,295.67,426.09,293.79,417,292Z" transform="translate(-1 -5)"/>
    <path d="M15,273c2.8-13.57,5.1-27.07,7-41,1.05-7.73,2.66-22.81,4-34,1.88-15.66,5-29.35,7-45,.58-4.55,2.81-17,7-27a97.34,97.34,0,0,1,6-12,24.37,24.37,0,0,1,9,10c1.92,4.1,2.88,13.73-2,26-4.19,10.53-9.88,15.44-14,26a62,62,0,0,0-4,18,27.72,27.72,0,0,0,8,10c5.75,4.41,11.35,4.83,18,6,5.63,1,10.33,2.7,16,4,4.67,1.07,9.27,2.05,14,3l-13,7c-7.73,4.76-17.3,10.65-23,14a89.51,89.51,0,0,0-9,6,92.41,92.41,0,0,0-10,9q-6,6.12-12,13Z" transform="translate(-1 -5)"/>
    <path d="M421,44c.11-.43,1.72-.57,3,0a4.22,4.22,0,0,1,2,2,19.33,19.33,0,0,1,3,2,25,25,0,0,1,3,3,32.34,32.34,0,0,0,3,3c2.87,2.31,5.2,2.61,8,5a17.17,17.17,0,0,1,2,2,6.59,6.59,0,0,1,1.53,1.68c.16.25.23.42.2.55-.19.84-3.11.88-5.73.77h-9c-1.05-4.44-3-9.49-6-11-.23-.12-.48-.23-.68-.31-1.65-.64-2.89-.27-4.32-.69a6.58,6.58,0,0,1-2-1V48a5.7,5.7,0,0,0,5-1,11.58,11.58,0,0,0-2-2C421.39,44.52,420.94,44.25,421,44Z" transform="translate(-1 -5)"/>
    <path d="M557,336l-8,8c-3.76,4.5-7.34,9-10.92,13.6C533.17,364,528.55,370.35,524,377l-13-2-26-4-30-5c-12.89-2.15-27.88-4.62-38-6-14-1.91-30.8-3.61-47-5-20.31-1.74-40.3-3-61-4a83.39,83.39,0,0,1-19-23l25-16c4.2-2.39,8.5-4.7,13-7a37.33,37.33,0,0,1,11-4,36.78,36.78,0,0,1,17,1l39,8c27.45,5,54.46,9.59,82,14C503.78,328.29,530.14,332.24,557,336Z" transform="translate(-1 -5)"/>
    <path d="M232,262c5.36,1.49,10.62,2.8,16,4,15,3.35,28.42,5.43,32,14a14.44,14.44,0,0,1,1,7,13.85,13.85,0,0,1-3,7,36.24,36.24,0,0,1-11,9c-1.72-1.28-3.37-2.6-5-4-8.08-7-13-13.85-18-21C240.23,272.66,236.28,267.4,232,262Z" transform="translate(-1 -5)"/>
    <path d="M618,239l-17-12c-6.24-3.27-12.52-6.24-19-9a267.27,267.27,0,0,0-31-11l-34-9a334.43,334.43,0,0,0-70-8c-20-.17-47.6,2.69-75,7-9.82,1.54-19.19,3.37-29,5-16.46,2.73-32.52,5-49,7a20.84,20.84,0,0,1-15.9-3.41A19.22,19.22,0,0,1,273,200a8.51,8.51,0,0,1-1-3,9.47,9.47,0,0,1,2-7c6-3.42,12-6.72,18-10,6.85-3.73,15.21-8.14,20-11,9-5.36,15.89-10.88,25-16,3.24-1.82,12-5.94,18-10,4.17-2.81,7.64-5.49,12-8,4-2.31,7.84-3.93,12-6,3.39-1.69,9.16-5.09,14-8,6-3.6,14-8.28,16-10,2.27-2,7.14-6.15,13-8.45a37.9,37.9,0,0,1,5-1.55c5.91-2.31,10.95-3.29,13-1.07,1.31,1.42.61,3.37,2,5.07s3.73,2.2,7,2a96.2,96.2,0,0,0-10.71,12.68c-4.3,6.15-6.08,10.8-6.29,15.32,0,.67,0,1.33,0,2a5.54,5.54,0,0,0,1,4c.66.84,2.27,1.79,5,2,5.08.39,11.64-1.65,17-4,3.9-3.83,7.85-7.45,12-11,5.79-5,11.77-9.61,18-14a30.82,30.82,0,0,1,4.28,2.65c.59.43,1.16.88,1.72,1.35q-.5,8.5-1,17v17a9.84,9.84,0,0,0,5,4,10.28,10.28,0,0,0,6,0,25.77,25.77,0,0,0,12-7,29.92,29.92,0,0,0,8-19,20.4,20.4,0,0,1,5,0c3.69.46,6.09,2.06,10,4s6.12,2.7,7,5c.82,2.14.3,4.62-1,7a28.6,28.6,0,0,0,1,19,71.19,71.19,0,0,0,5.55,6.82A72.42,72.42,0,0,0,555,178c2.66-1.71,5.3-3.35,8-5,1.67-1,3.32-2,5-3a26.81,26.81,0,0,0,2-7,27.29,27.29,0,0,0-1-12,39.58,39.58,0,0,1,11,4,42.52,42.52,0,0,1,6,4,40.76,40.76,0,0,1,8,8c7,10.51.45,24.53,8,31a14.39,14.39,0,0,0,8,3,15.93,15.93,0,0,0,7-1c1.62-3.52,3.4-6.91,4.91-10.48A74.73,74.73,0,0,1,627,179a45.48,45.48,0,0,1,18,5,27.28,27.28,0,0,1,13,11,61.69,61.69,0,0,1-2,10c-1.52,5.24-3.2,8.61-3,14a26.11,26.11,0,0,0,3,11,25.5,25.5,0,0,1,2.64,1.85A21.41,21.41,0,0,1,661,234a107.41,107.41,0,0,0,15-1,49.52,49.52,0,0,0,5.36-7.67A50.5,50.5,0,0,0,687,210l6,6c2.69,4.9,5.37,9.59,8.17,14.28,2.39,4,5,8.15,6.83,11.72,2.39,4.57,4.26,9.26,7,14a80.81,80.81,0,0,0,10,14,72,72,0,0,0,18,14c1.81,1,3.87,2,6,3,3.53,1.61,6.48,3.37,10,5,2.56,1.18,6,2.77,6,5,0,1.64-1.94,3-4,4l-11,2a45.49,45.49,0,0,1-11,0c-9.46-1.16-17.42-5.81-21-8-6.54-4-12.39-6.11-19-10-7.82-4.61-13.62-8.5-22-12a76.48,76.48,0,0,0-17-5,74.61,74.61,0,0,0-10-1,6.75,6.75,0,0,0-4.37.14A6.67,6.67,0,0,0,643,269a40.5,40.5,0,0,0-5-11,43.12,43.12,0,0,0-8-9C626.22,245.6,622.25,242.29,618,239Z" transform="translate(-1 -5)"/>
    <path d="M391,44a3.52,3.52,0,0,1,4-2,3.23,3.23,0,0,1,2,2,35.27,35.27,0,0,0,5,5,45.43,45.43,0,0,0,8,5,90.06,90.06,0,0,1,8,5,98.5,98.5,0,0,1,9,7l-12,1a69.19,69.19,0,0,0-10-8c-1.63-1.07-3.28-2.07-5-3a10.23,10.23,0,0,1-6-3,24,24,0,0,1-2-3,7.57,7.57,0,0,1-1-2A7.16,7.16,0,0,1,391,44Z" transform="translate(-1 -5)"/>
  </g>
  <g id="forth-color" class="cls-1">
    <path d="M689,206l7,2c2.41,1.23,4.75,2.56,7,4,3.34,2.13,6.82,4.61,8,6a11.41,11.41,0,0,0,3,3c1.43.86,2.65,1,3,2s-.52,2.51-2,4l-4,2a6.61,6.61,0,0,0-4,1c-1.43,1-2,2.86-3,3-1.86.25-4.13-4.81-6-10a29.19,29.19,0,0,1-3-4c-.74-1.19-1.52-3.51-3-5-.27-.27-3.53-2.2-4-4A5,5,0,0,1,689,206Z" transform="translate(-1 -5)"/>
    <path d="M382,93a17,17,0,0,1,9-.51A17.8,17.8,0,0,1,398,96c1.82,1.32,4.65,3.33,7,5a61.5,61.5,0,0,0-9,6c-1.77,1.44-5.37,4.52-9,4a4.61,4.61,0,0,1-2.14-.85A5.78,5.78,0,0,1,383,105a36.84,36.84,0,0,1-1-6A37.56,37.56,0,0,1,382,93Z" transform="translate(-1 -5)"/>
    <path d="M425,50c-3.54-.72-2.48-1.23-6-2v3c5.15,1,14.58,7.64,12,12a6.43,6.43,0,0,1-4,2c-2.84.2-5-2.06-6-3-2.71-2.64-5.17-3.49-8-6-4.43-3.93-8.1-4.54-12-9-1.85-2.11-4.24-5.37-7-5a4.69,4.69,0,0,0-3,2,31.26,31.26,0,0,0,.21,3.62c.18,1.55.47,2.83.79,4.38,8.47,4,14.78,8,21,14v2c-5.43.74-8.29,3.67-12,5-7.67,2.76-13-3.69-19.69-2.68A14.06,14.06,0,0,0,377,72a25,25,0,0,0-7,6c-3.14,3.87-9.61,10.5-15,16-5.18,5.56-10.1,11.14-15,17-4.58,5.48-8.23,10.68-13,16-3.59,4-6.49,7.92-10,12a47.21,47.21,0,0,0-7,11,42.56,42.56,0,0,0-3,21l-15,8-6,3a225.14,225.14,0,0,0-28,9c-2.18.87-10,4-15,6-3.73,1.48-7.23,2.76-11,4-3.34,1.1-6.62,2.09-10,3l-20,7a32.46,32.46,0,0,0-8,2,27.1,27.1,0,0,1-7,2,16.7,16.7,0,0,1-4,0,20.37,20.37,0,0,1-6-2c-3-1.63-9.89-4.07-16-6-12.29-3.89-27.51-5.12-42-1a124.12,124.12,0,0,0-13,5c-4.89,2.13-8.45,4.18-13,5-10.06,1.81-17.15-2.85-29-5-3.46-.63-6.52-1.44-10-2-3-.48-6.93-1-11-4a21.6,21.6,0,0,1-7-9,51.75,51.75,0,0,1,.38-10.48A48.65,48.65,0,0,1,39,175c2.81-7.45,8.65-14,11-18a56.68,56.68,0,0,0,6-14,32.46,32.46,0,0,0,1-14,27.22,27.22,0,0,0-9-15,67.63,67.63,0,0,0,6.09-12.39A37.51,37.51,0,0,1,59,92a30.72,30.72,0,0,1,6-6,18.51,18.51,0,0,1,3,3,19.82,19.82,0,0,1,2.42,4A21.24,21.24,0,0,1,72,98c4.66,7.74,2.49,20.68,5,30,5.68,21.13,17.64,36.72,23,41a58,58,0,0,0,19,10,116.36,116.36,0,0,0,21,6c6.26,1.17,17.67,1.79,28,2,4.49.09,9.4.13,13,0a185.6,185.6,0,0,0,21-2c16.72-2.54,34.71-7.93,54-16,5.52-2.31,13.79-6.56,21-10a67.66,67.66,0,0,0,12-7c4.26-3.18,8.48-7.79,11-10a69.78,69.78,0,0,1,15-10l16-16,12-10,13-13,8-8-15,9-18,15-13,12-11,9-11-12a55.74,55.74,0,0,1-1-39,72.43,72.43,0,0,1,17-27l13-14c4.33-4.36,10.28-10.27,13-13,2.47-2.47,6.38-5.95,10-9,2.37-2,4.57-3.08,7-5,2-1.57,3.61-2.95,6-3,4-.08,7.56,3.66,10,8a8.62,8.62,0,0,1,11,2l10,8a37.7,37.7,0,0,0,13,9c.64.26,6.61,1.92,10,4A28,28,0,0,1,425,50Z" transform="translate(-1 -5)"/>
    <path d="M435,98c0-5.26-1.07-7.93-2-12,7.06-.18,10-1.91,18-2v2C444.52,95.6,448.36,99.6,435,98Z" transform="translate(-1 -5)"/>
  </g>  
  <g id="shadowimage" data-name="shadow Image">
    <image id="shadow_image" data-name="shadow image" width="1000" height="461" xlink:href="shoe1.png"/>
  </g>
</svg>
